<svg width="40" height="40" viewBox="0 0 40 40" fill="none" xmlns="http://www.w3.org/2000/svg">
<rect width="40" height="40" rx="8" fill="#D47311"/>
<path d="M18 26C16.05 26 14.3958 25.3208 13.0375 23.9625C11.6792 22.6042 11 20.95 11 19V13C11 12.45 11.1958 11.9792 11.5875 11.5875C11.9792 11.1958 12.45 11 13 11H25.5C26.4667 11 27.2917 11.3417 27.975 12.025C28.6583 12.7083 29 13.5333 29 14.5C29 15.4667 28.6583 16.2917 27.975 16.975C27.2917 17.6583 26.4667 18 25.5 18H25V19C25 20.95 24.3208 22.6042 22.9625 23.9625C21.6042 25.3208 19.95 26 18 26ZM13 16H23V13H13V16ZM18 24C19.3833 24 20.5625 23.5125 21.5375 22.5375C22.5125 21.5625 23 20.3833 23 19V18H13V19C13 20.3833 13.4875 21.5625 14.4625 22.5375C15.4375 23.5125 16.6167 24 18 24ZM25 16H25.5C25.9167 16 26.2708 15.8542 26.5625 15.5625C26.8542 15.2708 27 14.9167 27 14.5C27 14.0833 26.8542 13.7292 26.5625 13.4375C26.2708 13.1458 25.9167 13 25.5 13H25V16ZM11 29V27H27V29H11Z" fill="white"/>
</svg>
